<svg width="24" height="24" viewBox="0 0 24 24" fill="none" xmlns="http://www.w3.org/2000/svg">
<rect width="24" height="24" rx="8" fill="#F8D355"/>
<path d="M17.375 12.4061C16.7031 12.4061 16.1063 12.8155 15.8625 13.4374H14.575L13.5938 10.9155C13.5094 10.6593 13.2719 10.4874 13 10.4874H12.9875C12.7125 10.4936 12.475 10.6749 12.4 10.9405L11.35 15.1718L9.61563 6.053C9.5625 5.73738 9.3 5.49988 9 5.49988C8.70313 5.49988 8.47188 5.69363 8.39375 6.00613L6.82188 13.4374H5V14.6874H7.3125C7.6 14.6874 7.85 14.4936 7.91875 14.2124L8.87813 9.19363L10.5688 18.0093C10.6156 18.2843 10.8469 18.4811 11.15 18.4999H11.1875C11.4781 18.4999 11.7156 18.3343 11.7875 18.078L13.0438 12.9874L13.5281 14.2593C13.6125 14.5155 13.85 14.6874 14.1219 14.6874H15.8844C16.1438 15.2811 16.7313 15.6561 17.3719 15.6561C17.8063 15.6561 18.2125 15.4811 18.5219 15.1624C18.8281 14.8468 18.9969 14.4343 18.9969 13.9999C19 13.1061 18.2875 12.4061 17.375 12.4061Z" fill="#143650" fill-opacity="0.96"/>
</svg>