<svg width="20" height="20" viewBox="0 0 20 20" fill="none" xmlns="http://www.w3.org/2000/svg">
<path d="M0 8C0 4.22876 0 2.34315 1.17157 1.17157C2.34315 0 4.22876 0 8 0H12C15.7712 0 17.6569 0 18.8284 1.17157C20 2.34315 20 4.22876 20 8V12C20 15.7712 20 17.6569 18.8284 18.8284C17.6569 20 15.7712 20 12 20H8C4.22876 20 2.34315 20 1.17157 18.8284C0 17.6569 0 15.7712 0 12V8Z" fill="#CD7B2E"/>
<path d="M7.81398 7.70565C8.18761 8.03071 8.71076 8.16355 9.19486 8.06255C9.66314 7.96493 10.0721 7.64861 10.2914 7.2244C10.7591 6.31977 10.2352 5.18639 9.25289 4.93792C8.56948 4.76505 7.83232 5.07767 7.4772 5.68593C7.09354 6.34274 7.23945 7.20858 7.81398 7.70565Z" fill="#162631"/>
<path d="M16.7514 12.9733C16.7302 12.5435 16.3646 12.2122 15.9348 12.2334L11.564 12.4486C11.4829 11.3407 11.6379 9.55042 11.7417 9.30026C11.7606 9.27307 11.7781 9.24451 11.7939 9.21432L14.0475 4.8807C14.2047 4.57698 14.0998 4.19817 13.8017 4.02204C13.493 3.8396 13.0948 3.94201 12.9123 4.25076C12.9123 4.25076 10.8162 7.6306 9.76464 8.06426C8.71314 8.49792 4.66673 9.51914 4.66673 9.51914C4.33923 9.61582 4.13836 9.95317 4.21702 10.2899C4.29858 10.6392 4.6478 10.8562 4.99705 10.7746L8.11798 10.0004L8.18677 13.0748L3.77795 14.5508C3.38908 14.6818 3.16373 15.0962 3.27414 15.4968C3.38848 15.9116 3.81752 16.1553 4.23236 16.0409L9.88548 14.4827C11.295 14.1129 16.0534 13.7867 16.0534 13.7867C16.4615 13.7435 16.7718 13.3882 16.7514 12.9733Z" fill="#162631"/>
</svg>