<svg width="24" height="24" viewBox="0 0 48 48" fill="none" xmlns="http://www.w3.org/2000/svg">
<rect width="48" height="48" rx="8" fill="#00C4D2"/>
<path d="M24.0002 16C25.6571 16 27.0002 14.6569 27.0002 13C27.0002 11.3432 25.6571 10 24.0002 10C22.3434 10 21.0002 11.3432 21.0002 13C21.0002 14.6569 22.3434 16 24.0002 16Z" fill="#143650" fill-opacity="0.96"/>
<path d="M34.5 17H13.5C12.6687 17 12 17.6688 12 18.5C12 19.3313 12.6687 20 13.5 20H19.6562C20.0062 20.0625 20.4812 20.2375 20.7312 20.8875C21.025 21.6438 20.8812 22.9875 20.7 24.1188L20.4625 25.4563C20.4625 25.4625 20.4625 25.4688 20.4562 25.475L18.5562 36.2375C18.4125 37.05 18.9562 37.8313 19.775 37.975C20.5937 38.1188 21.3562 37.575 21.5 36.7563L22.8125 29.2625V29.275C22.8125 29.275 23.2 27.2438 23.9687 27.2438H24.0375C24.8187 27.2438 25.1937 29.275 25.1937 29.275V29.2688L26.5062 36.7625C26.65 37.575 27.425 38.1188 28.2375 37.975C29.0562 37.8313 29.5938 37.05 29.45 36.2375L27.55 25.475C27.55 25.4688 27.55 25.4625 27.5437 25.4563L27.3062 24.1188C27.125 22.9875 26.9812 21.6438 27.275 20.8875C27.525 20.2375 28 20.0625 28.35 20H34.5C35.3312 20 36 19.3313 36 18.5C36 17.6688 35.3312 17 34.5 17Z" fill="#143650" fill-opacity="0.96"/>
</svg>