<svg width="24" height="24" viewBox="0 0 25 24" fill="none" xmlns="http://www.w3.org/2000/svg">
<rect x="0.428711" width="24" height="24" rx="8" fill="#CB3A31"/>
<path d="M17.3227 11.0969L13.1352 6.78125C12.9539 6.59375 12.707 6.5 12.4352 6.5H12.4227C12.1508 6.5 11.9039 6.59375 11.7227 6.78125L7.53516 11.0969C7.14453 11.4719 7.14453 12.075 7.53516 12.4469C7.92578 12.8187 8.55703 12.8187 8.94766 12.4469L11.4289 9.85313V16.5406C11.4289 17.0687 11.8758 17.4969 12.4289 17.4969C12.9914 17.4969 13.4289 17.0687 13.4289 16.5406V9.85313L15.9102 12.4469C16.3008 12.8187 16.932 12.8187 17.3227 12.4469C17.7133 12.075 17.7133 11.4719 17.3227 11.0969Z" fill="#143650" fill-opacity="0.96"/>
</svg>